<?xml version="1.0" encoding="UTF-8" standalone="no"?>
<svg width="156px" height="52px" viewBox="0 0 156 52" version="1.1" xmlns="http://www.w3.org/2000/svg" xmlns:xlink="http://www.w3.org/1999/xlink">
    <!-- Generator: Sketch 3.7.2 (28276) - http://www.bohemiancoding.com/sketch -->
    <title>Logo</title>
    <desc>Created with Sketch.</desc>
    <defs>
        <filter x="-50%" y="-50%" width="200%" height="200%" filterUnits="objectBoundingBox" id="filter-1">
            <feOffset dx="0" dy="0" in="SourceAlpha" result="shadowOffsetOuter1"></feOffset>
            <feGaussianBlur stdDeviation="4" in="shadowOffsetOuter1" result="shadowBlurOuter1"></feGaussianBlur>
            <feColorMatrix values="0 0 0 0 0   0 0 0 0 0   0 0 0 0 0  0 0 0 0.5 0" type="matrix" in="shadowBlurOuter1" result="shadowMatrixOuter1"></feColorMatrix>
            <feMerge>
                <feMergeNode in="SourceGraphic"></feMergeNode>
            </feMerge>
        </filter>
    </defs>
    <g id="Hi-Fi-Mockups" stroke="none" stroke-width="1" fill="none">
        <g id="Desktop-HD" transform="translate(-22.000000, -24.000000)" fill="#0FC8C3">
            <g id="Navigation-Bar">
                <g id="Logo" filter="url(#filter-1)" transform="translate(30.000000, 32.000000)">
                    <g id="Group-3">
                        <path d="M14.5869069,18.8797544 C14.8890038,19.0641754 15.266409,19.0641754 15.5685059,18.8797544 L29.4051466,10.4329072 C29.8569151,10.1571163 30.0034073,9.56092253 29.7323463,9.10127109 C29.4612852,8.64161966 28.8753161,8.49257121 28.4235477,8.76836208 L15.0864774,16.9209457 L1.73186511,8.76836208 C1.28009667,8.49257121 0.69412757,8.64161966 0.423066503,9.10127109 C0.152005436,9.56092253 0.29849771,10.1571163 0.750266155,10.4329072 L14.5869069,18.8797544 Z M15.0777064,10.5712229 C19.13591,10.5712229 22.4257481,13.9184628 22.4257481,18.0474819 C22.4257481,22.176501 19.13591,25.523741 15.0777064,25.523741 C11.0195027,25.523741 7.72966465,22.176501 7.72966465,18.0474819 C7.72966465,13.9184628 11.0195027,10.5712229 15.0777064,10.5712229 L15.0777064,10.5712229 Z M5.82177922,18.0474819 C5.82177922,23.2485835 9.9658071,27.4649174 15.0777064,27.4649174 C20.1896057,27.4649174 24.3336335,23.2485835 24.3336335,18.0474819 C24.3336335,12.8463803 20.1896057,8.63004639 15.0777064,8.63004639 C9.9658071,8.63004639 5.82177922,12.8463803 5.82177922,18.0474819 Z" id="Shape"></path>
                        <path d="M15.5685059,35.773449 L29.4051466,27.3266017 C29.6924793,27.1511939 29.8682898,26.8352608 29.8682898,26.4943292 L29.8682898,9.60063462 C29.8682898,9.25970303 29.6924793,8.94376993 29.4051466,8.76836208 L15.5685059,0.321514793 C15.266409,0.137093873 14.8890038,0.137093873 14.5869069,0.321514793 L0.750266155,8.76836208 C0.462933448,8.94376993 0.287122918,9.25970303 0.287122918,9.60063462 L0.287122918,26.4943292 C0.287122918,26.8352608 0.462933448,27.1511939 0.750266155,27.3266017 L14.5869069,35.773449 C14.8890038,35.9578699 15.266409,35.9578699 15.5685059,35.773449 Z M2.1949607,25.9463684 L2.19358728,10.1510399 L15.0870127,2.29148215 L27.9605061,10.1535217 L27.9634104,25.943115 L15.0817848,33.8113952 L2.1949607,25.9463684 Z" id="Path"></path>
                    </g>
                    <path d="M44.8073138,24.0481482 L42.5711437,24.0481482 L37.8108204,12 L40.046987,12 L43.6892305,20.9973282 L47.3314705,12 L49.5676371,12 L44.8073138,24.0481482 L44.8073138,24.0481482 Z" id="Fill-6"></path>
                    <path d="M60.3511027,12 L60.3511027,13.9132271 L54.0322347,13.9132271 L54.0322347,17.1019341 L59.7073578,17.1019341 L59.7073578,18.9117424 L54.0322347,18.9117424 L54.0322347,22.1349212 L60.5543896,22.1349212 L60.5543896,24.0481482 L52.033239,24.0481482 L52.033239,12 L60.3511027,12 L60.3511027,12 Z" id="Fill-7"></path>
                    <path d="M73.6272171,15.9126318 C73.6272171,17.9005482 72.7745311,19.1530482 71.0691937,19.6701353 L74.1693341,24.0481482 L71.6282041,24.0481482 L68.7991222,19.9976259 L66.1733272,19.9976259 L66.1733272,24.0481482 L64.1743281,24.0481482 L64.1743281,12 L68.5789002,12 C70.3858932,12 71.6790579,12.3102529 72.4583077,12.9307588 C73.2375922,13.5512647 73.6272171,14.5452212 73.6272171,15.9126318 L73.6272171,15.9126318 Z M70.9675207,17.6190212 C71.3741085,17.2628047 71.577385,16.6911353 71.577385,15.9040129 C71.577385,15.1168906 71.3684542,14.57682 70.9505926,14.2838047 C70.532731,13.9907894 69.7873375,13.84428 68.714426,13.84428 L66.1733272,13.84428 L66.1733272,18.1533459 L68.6636034,18.1533459 C69.7929918,18.1533459 70.5609677,17.9752376 70.9675207,17.6190212 L70.9675207,17.6190212 Z" id="Fill-8"></path>
                    <path d="M86.6645857,13.5771176 C87.8052583,14.6285294 88.3755773,16.09074 88.3755773,17.9637459 C88.3755773,19.8367553 87.8221865,21.3190729 86.7154048,22.4107024 C85.6086231,23.5023318 83.9145596,24.0481482 81.6332143,24.0481482 L77.7029703,24.0481482 L77.7029703,12 L81.7687435,12 C83.8919425,12 85.523913,12.5257059 86.6645857,13.5771176 L86.6645857,13.5771176 Z M86.3596362,18.0154553 C86.3596362,15.2576541 84.8067562,13.8787518 81.7009616,13.8787518 L79.7019833,13.8787518 L79.7019833,22.1349212 L81.9212009,22.1349212 C83.3555145,22.1349212 84.4538321,21.7873235 85.2161537,21.0921282 C85.9784754,20.3969329 86.3596362,19.3713741 86.3596362,18.0154553 L86.3596362,18.0154553 Z" id="Fill-9"></path>
                    <path d="M91.925389,12 L93.9243673,12 L93.9243673,24.0481482 L91.925389,24.0481482 L91.925389,12 L91.925389,12 Z" id="Fill-10"></path>
                    <path d="M106.437217,18.4808329 L108.436195,18.4808329 L108.436195,22.6002988 C107.318105,23.8528024 105.72006,24.4790541 103.641991,24.4790541 C101.891454,24.4790541 100.426094,23.89302 99.245876,22.7209553 C98.0656928,21.5488871 97.4756011,20.0665694 97.4756011,18.2739988 C97.4756011,16.4814282 98.0769666,14.9876188 99.279767,13.7925706 C100.482567,12.5975224 101.936619,12 103.641991,12 C105.347363,12 106.764714,12.5055953 107.894113,13.5167894 L106.826841,15.0680541 C106.36378,14.6658741 105.897909,14.38722 105.429229,14.2320953 C104.960548,14.0769671 104.415621,13.9994047 103.794448,13.9994047 C102.597302,13.9994047 101.592159,14.3929659 100.779018,15.1800882 C99.9658773,15.9672106 99.5592895,17.0013882 99.5592895,18.2826176 C99.5592895,19.5638435 99.9545687,20.5922753 100.745127,21.3679059 C101.535685,22.14354 102.492854,22.5313553 103.616564,22.5313553 C104.740309,22.5313553 105.680514,22.2843035 106.437217,21.7901965 L106.437217,18.4808329 L106.437217,18.4808329 Z" id="Fill-11"></path>
                    <path d="M121.497787,15.9126318 C121.497787,17.9005482 120.645101,19.1530482 118.939729,19.6701353 L122.039869,24.0481482 L119.498774,24.0481482 L116.669692,19.9976259 L114.043886,19.9976259 L114.043886,24.0481482 L112.044908,24.0481482 L112.044908,12 L116.449452,12 C118.256463,12 119.549593,12.3102529 120.328877,12.9307588 C121.108162,13.5512647 121.497787,14.5452212 121.497787,15.9126318 L121.497787,15.9126318 Z M118.83809,17.6190212 C119.244678,17.2628047 119.447954,16.6911353 119.447954,15.9040129 C119.447954,15.1168906 119.239024,14.57682 118.821162,14.2838047 C118.4033,13.9907894 117.657907,13.84428 116.584982,13.84428 L114.043886,13.84428 L114.043886,18.1533459 L116.534162,18.1533459 C117.663561,18.1533459 118.431537,17.9752376 118.83809,17.6190212 L118.83809,17.6190212 Z" id="Fill-12"></path>
                    <path d="M125.226662,12 L127.22564,12 L127.22564,24.0481482 L125.226662,24.0481482 L125.226662,12 L125.226662,12 Z" id="Fill-13"></path>
                    <path d="M133.893943,14.2407141 C133.521246,14.48202 133.334898,14.8468553 133.334898,15.3352165 C133.334898,15.8235776 133.521246,16.1970282 133.893943,16.4555718 C134.266639,16.7141153 135.060008,16.9927694 136.274116,17.2915306 C137.488191,17.5902918 138.40297,18.0097094 139.018488,18.54978 C139.634007,19.0898471 139.941766,19.8855882 139.941766,20.937 C139.941766,21.9884118 139.552106,22.8416082 138.772857,23.4965859 C137.993572,24.1515635 136.971501,24.4790541 135.706573,24.4790541 C133.854397,24.4790541 132.211153,23.8298188 130.776874,22.5313553 L132.030459,20.9973282 C133.227605,22.0544859 134.469916,22.5830647 135.757426,22.5830647 C136.401147,22.5830647 136.912217,22.4423012 137.290534,22.1607741 C137.668885,21.8792506 137.858043,21.5057965 137.858043,21.0404188 C137.858043,20.5750376 137.680193,20.2130788 137.324425,19.9545353 C136.968656,19.6959882 136.355982,19.4604282 135.486368,19.2478482 C134.616754,19.0352682 133.95607,18.8399224 133.504318,18.6618141 C133.052565,18.4837059 132.651632,18.2510153 132.301517,17.9637459 C131.601289,17.4236753 131.251209,16.5963353 131.251209,15.4817224 C131.251209,14.3671129 131.649298,13.5081706 132.445511,12.9049024 C133.241723,12.3016341 134.227094,12 135.401658,12 C136.158325,12 136.909373,12.1263988 137.654766,12.3791965 C138.40016,12.6319941 139.043915,12.9882106 139.585997,13.4478459 L138.518726,14.9818729 C138.168647,14.6601282 137.694277,14.3958388 137.095721,14.1890047 C136.497166,13.9821706 135.907039,13.8787518 135.325412,13.8787518 C134.743784,13.8787518 134.266639,13.9994047 133.893943,14.2407141 L133.893943,14.2407141 Z" id="Fill-14"></path>
                </g>
            </g>
        </g>
    </g>
</svg>
