<svg viewBox="-1 -1 32 38" fill="none" xmlns="http://www.w3.org/2000/svg">
  <!-- Verdigris hexagonal mark, white on transparent (for dark backgrounds) -->
  <path d="M14.587 18.88a1.03 1.03 0 0 0 .981 0l13.837-8.447a.97.97 0 0 0-.654-1.764L15.087 16.92 1.732 8.768a.97.97 0 0 0-1.309.333.97.97 0 0 0 .327 1.332l13.837 8.447ZM15.078 10.571c4.058 0 7.348 3.347 7.348 7.476 0 4.13-3.29 7.476-7.348 7.476s-7.348-3.347-7.348-7.476c0-4.13 3.29-7.476 7.348-7.476Zm-9.256 7.476c0 5.201 4.144 9.417 9.256 9.417s9.256-4.216 9.256-9.417-4.144-9.417-9.256-9.417-9.256 4.216-9.256 9.417Z" fill="#FFFFFF"/>
  <path d="M15.569 35.773 29.405 27.327a.97.97 0 0 0 .463-.833V9.6a.97.97 0 0 0-.463-.832L15.569.322a1.03 1.03 0 0 0-.982 0L.75 8.768a.97.97 0 0 0-.463.832v16.894c0 .341.176.657.463.832l13.837 8.447a1.03 1.03 0 0 0 .982 0ZM2.195 25.946 2.194 10.15l12.893-7.86 12.874 7.863.003 15.79-12.882 7.868-12.887-7.865Z" fill="#FFFFFF"/>
</svg>
