<svg viewBox="-1 -1 142 38" fill="none" xmlns="http://www.w3.org/2000/svg">
  <!-- Verdigris full lockup, neutral.950 on transparent (for light backgrounds) -->
  <g>
    <path d="M14.587 18.88a1.03 1.03 0 0 0 .981 0l13.837-8.447a.97.97 0 0 0-.654-1.764L15.087 16.92 1.732 8.768a.97.97 0 0 0-1.309.333.97.97 0 0 0 .327 1.332l13.837 8.447ZM15.078 10.571c4.058 0 7.348 3.347 7.348 7.476 0 4.13-3.29 7.476-7.348 7.476s-7.348-3.347-7.348-7.476c0-4.13 3.29-7.476 7.348-7.476Zm-9.256 7.476c0 5.201 4.144 9.417 9.256 9.417s9.256-4.216 9.256-9.417-4.144-9.417-9.256-9.417-9.256 4.216-9.256 9.417Z" fill="#09090b"/>
    <path d="M15.569 35.773 29.405 27.327a.97.97 0 0 0 .463-.833V9.6a.97.97 0 0 0-.463-.832L15.569.322a1.03 1.03 0 0 0-.982 0L.75 8.768a.97.97 0 0 0-.463.832v16.894c0 .341.176.657.463.832l13.837 8.447a1.03 1.03 0 0 0 .982 0ZM2.195 25.946 2.194 10.15l12.893-7.86 12.874 7.863.003 15.79-12.882 7.868-12.887-7.865Z" fill="#09090b"/>
  </g>
  <!-- Wordmark -->
  <g transform="translate(37, 3)">
    <path d="M7.807 24.048H5.571L.811 12h2.236l3.642 8.997L10.331 12h2.237L7.807 24.048Z" fill="#09090b"/>
    <path d="M23.351 12v1.913h-6.319v3.189h5.675v1.81h-5.675v3.223h6.522v1.913h-8.521V12h8.318Z" fill="#09090b"/>
    <path d="M36.627 15.913c0 1.988-.852 3.24-2.558 3.757l3.1 4.378h-2.541l-2.829-4.05h-2.626v4.05h-2V12h4.405c1.807 0 3.1.31 3.88.931.779.62 1.169 1.614 1.169 2.982Zm-2.66 1.706c.407-.356.61-.928.61-1.715 0-.787-.209-1.327-.627-1.62-.418-.293-1.163-.44-2.236-.44h-2.541v4.31h2.49c1.13 0 1.897-.179 2.304-.535Z" fill="#09090b"/>
    <path d="M49.665 13.577c1.14 1.051 1.71 2.514 1.71 4.387s-.553 3.873-1.66 4.964c-1.107 1.092-2.8 1.638-5.082 1.638h-3.93V12h4.066c2.123 0 3.755.526 4.896 1.577Zm-.305 4.438c0-2.758-1.553-4.136-4.659-4.136h-2v8.256h2.22c1.435 0 2.533-.348 3.295-1.043.763-.695 1.144-1.72 1.144-3.077Z" fill="#09090b"/>
    <path d="M54.925 12h2v12.048h-2V12Z" fill="#09090b"/>
    <path d="M69.437 18.48h2v4.12c-1.118 1.253-2.716 1.879-4.795 1.879-1.75 0-3.216-.586-4.396-1.758-1.18-1.172-1.77-2.654-1.77-4.447 0-1.793.601-3.286 1.804-4.481C63.483 12.598 64.937 12 66.642 12c1.706 0 3.123.506 4.252 1.517l-1.067 1.551a4.632 4.632 0 0 0-1.398-.836 4.486 4.486 0 0 0-1.635-.233c-1.197 0-2.202.393-3.015 1.18-.813.788-1.22 1.822-1.22 3.103 0 1.281.396 2.31 1.186 3.085.79.776 1.748 1.163 2.871 1.163 1.124 0 2.064-.247 2.82-.741V18.48Z" fill="#09090b"/>
    <path d="M84.498 15.913c0 1.988-.853 3.24-2.558 3.757l3.1 4.378h-2.541l-2.83-4.05h-2.625v4.05h-2V12h4.405c1.807 0 3.1.31 3.879.931.78.62 1.17 1.614 1.17 2.982Zm-2.66 1.706c.407-.356.61-.928.61-1.715 0-.787-.209-1.327-.627-1.62-.418-.293-1.163-.44-2.236-.44h-2.541v4.31h2.49c1.13 0 1.898-.179 2.304-.535Z" fill="#09090b"/>
    <path d="M88.227 12h2v12.048h-2V12Z" fill="#09090b"/>
    <path d="M96.894 14.24a1.334 1.334 0 0 0-.559 1.095c0 .488.186.862.559 1.12.373.259 1.166.537 2.38.836 1.214.299 2.129.718 2.744 1.259.616.54.924 1.336.924 2.387 0 1.051-.39 1.905-1.17 2.56-.779.654-1.8.982-3.065.982-1.852 0-3.496-.65-4.93-1.948l1.254-1.534c1.197 1.057 2.44 1.586 3.727 1.586.644 0 1.155-.141 1.533-.422.378-.321.568-.695.568-1.16 0-.465-.178-.827-.534-1.086-.355-.258-.968-.494-1.838-.706-.869-.213-1.53-.408-1.982-.586-.451-.178-.852-.41-1.203-.698-.7-.54-1.05-1.367-1.05-2.482 0-1.114.398-1.973 1.194-2.577.796-.603 1.782-.905 2.956-.905.757 0 1.508.126 2.253.38.746.252 1.389.608 1.932 1.068l-1.068 1.534a3.834 3.834 0 0 0-1.423-.793 4.978 4.978 0 0 0-1.77-.31c-.582 0-1.059.121-1.432.362Z" fill="#09090b"/>
  </g>
</svg>
